PathFileType	4	(X/Y/Z)	RBDS016\RBDS016runT25.trc
DataRate	CameraRate	NumFrames	NumMarkers	Units	OrigDataRate	OrigDataStartFrame	OrigNumFrames
150.000000	150.000000	4	33	mm	150.000000	3937	4500
Frame#	Time	L.ASIS			L.Heel.Bottom			L.Heel.Lateral			L.Heel.Top			L.Iliac.Crest			L.MT1			L.MT5			L.PSIS			L.Shank.Bottom.Lateral			L.Shank.Bottom.Medial			L.Shank.Top.Lateral			L.Shank.Top.Medial			L.Thigh.Bottom.Lateral			L.Thigh.Bottom.Medial			L.Thigh.Top.Lateral			L.Thigh.Top.Medial			R.ASIS			R.ASY			R.Heel.Bottom			R.Heel.Lateral			R.Heel.Top			R.Iliac.Crest			R.MT1			R.MT5			R.PSIS			R.Shank.Bottom.Lateral			R.Shank.Bottom.Medial			R.Shank.Top.Lateral			R.Shank.Top.Medial			R.Thigh.Bottom.Lateral			R.Thigh.Bottom.Medial			R.Thigh.Top.Lateral			R.Thigh.Top.Medial			
		X1	Y1	Z1	X2	Y2	Z2	X3	Y3	Z3	X4	Y4	Z4	X5	Y5	Z5	X6	Y6	Z6	X7	Y7	Z7	X8	Y8	Z8	X9	Y9	Z9	X10	Y10	Z10	X11	Y11	Z11	X12	Y12	Z12	X13	Y13	Z13	X14	Y14	Z14	X15	Y15	Z15	X16	Y16	Z16	X17	Y17	Z17	X18	Y18	Z18	X19	Y19	Z19	X20	Y20	Z20	X21	Y21	Z21	X22	Y22	Z22	X23	Y23	Z23	X24	Y24	Z24	X25	Y25	Z25	X26	Y26	Z26	X27	Y27	Z27	X28	Y28	Z28	X29	Y29	Z29	X30	Y30	Z30	X31	Y31	Z31	X32	Y32	Z32	X33	Y33	Z33	

3938	26.24666666666667	2445.316221675454	914.6208994443907	961.9781867619193	2193.841352538426	159.3195242737945	1006.144578262824	2216.15397842946	165.8042727781841	958.8455127460605	2223.337961139632	196.6612841306857	1000.12919325917	2360.996569045656	979.7440781907634	909.353535371887	2400.227703159964	76.30178037344318	996.7709310194822	2342.723939017329	86.19699585292739	904.0236769650299	2260.149971314928	947.1144618780262	1033.809503533489	2310.618456354781	261.2321258209097	936.6392356267968	2298.62235035965	274.1057392159874	989.256203359442	2348.336295514527	332.094937402904	929.0392009774155	2337.869294785996	344.8154343604343	980.3501558407667	2487.166413588412	567.6574224760571	895.1962029238691	2433.132211246645	543.5927330754637	937.7669130230878	2436.088129281674	663.9362624897749	882.8795997704705	2382.886630949175	639.8888918176128	921.2056782281337	2451.219700196107	909.1446695616389	1195.588582795407	2207.356048870031	79.76956030753136	1127.078023374213	2020.930367949603	74.96918303464365	1084.529749224401	2044.876734474793	90.02450495693381	1131.04052272906	2043.54780929004	121.6267838258533	1088.144184003068	2381.523293093393	973.4477856078165	1241.149711695887	2233.670806785358	46.38417968835704	1088.254106659372	2180.487251733398	37.91057800747134	1187.155050801336	2263.121282307421	947.6343394006077	1131.455996072442	2130.556797009801	184.6597066793615	1161.15220179189	2101.38004002064	209.4827137210116	1127.24428994794	2164.941931092197	259.1499010873733	1183.700863333888	2132.295707512317	281.7395392966545	1147.634465707092	2302.852419107084	557.2178691533578	1225.172155966347	2247.834170516122	568.4977383511758	1179.501493479507	2305.520008675645	665.5186466590292	1244.896658927243	2253.738983936918	675.5846668978076	1201.555914249475	
3939	26.25333333333333	2446.461644747755	920.4752917594686	962.1392931065016	2214.146555432412	143.162221625388	1008.237765812562	2235.408825784777	150.8281353708492	960.642906456576	2241.083401055734	182.3224373174348	1001.670106613673	2362.53763101056	986.4617142681989	909.3041672603212	2425.440417592513	73.57318541821704	997.4226639481435	2366.513521741833	79.1664386018239	905.1764940960733	2261.91050310491	953.3896453120132	1033.837980610016	2323.631182052294	252.2605434542834	937.5276392779932	2311.284850079737	264.4976668173357	990.1911944400972	2356.756128533682	325.3686238619834	929.5090031103188	2345.894016017799	337.5401060057567	980.8708719415596	2487.925445959402	572.9526261652029	894.8649726476481	2433.380528831589	549.1148571200869	936.9315126919753	2437.247260603246	669.402507221886	882.1290565399423	2383.561950298745	645.5291656753951	919.8839553861764	2452.670910436263	912.5680799211567	1194.443491947341	2193.733485792388	80.64666591207761	1128.262657538006	2007.486531145169	84.07711559864987	1085.065215476643	2031.820980289081	97.34688899097216	1131.888550314302	2031.723422527792	129.6907609899017	1089.530503765858	2386.061325226088	977.925683794667	1239.972548460229	2218.176688071306	46.14897509129457	1088.668989075668	2164.806116491138	38.91444476277449	1187.294133509586	2265.152100897557	953.6080750247788	1131.846116872272	2117.537523187802	191.3602777407944	1162.422583195148	2088.839866090244	215.9396155360706	1127.988350537215	2151.942476161853	265.9888014608551	1184.580554024272	2119.68548446496	288.294312730744	1148.0931232131	2294.833127344893	563.6231977582453	1225.029927105918	2240.018860763413	576.5430516815227	1179.468353358321	2300.857571040793	671.8824686313013	1244.453491781104	2249.289020507239	683.4315868969626	1201.17340175307	
3940	26.26	2447.611672634433	926.2451836416847	962.1542044190325	2235.545807792636	127.4836317436254	1010.207887754788	2255.724172205059	136.2847864067377	962.3265604831561	2259.795745144761	168.2926094671584	1003.105835846847	2364.159122806536	993.3448830568407	909.3461784203768	2450.815725681678	71.74845128961641	998.0039238684427	2390.876820520146	72.94016305121843	906.2548321118867	2263.742395312869	959.5616238584347	1033.900331612788	2337.126643249945	243.3928000615661	938.3633136156993	2324.488676851878	254.91804709813	991.1078554617296	2365.420287474806	318.4541659753775	929.9690376531845	2354.250010245258	329.9981543835534	981.4135290022921	2487.993680112936	577.7212207335479	894.695468951257	2432.757881685814	554.2708061581975	936.0991804956086	2438.013156725619	674.4954096766212	881.475185533772	2383.737877394585	650.9807586496901	918.6084573250745	2454.145809603154	915.9163680009957	1193.160194942634	2180.612232924771	81.57917888447042	1129.526410776425	1994.814433269872	93.95617325698123	1085.726022639527	2019.525461048624	105.3207802185983	1132.832715292312	2020.829243646029	138.3471630500368	1091.022864833786	2390.745302997742	982.369663494675	1238.578306677704	2202.997580963132	45.97530291538425	1089.203291398918	2149.443137888579	40.15925531257066	1187.52324058624	2267.256832585327	959.5635929177097	1132.250968032925	2105.320104673661	198.3723227922317	1163.873860606425	2077.184656571163	222.6845198368625	1128.820970442255	2139.736108860899	273.1576884817396	1185.604246430378	2107.966181371547	295.1340974330295	1148.622168650515	2287.417564307571	570.1515609231924	1225.040655942238	2232.871181479172	584.5493807838914	1179.5057077773	2296.544956957672	678.3228159748521	1244.135192935068	2245.279459884704	691.2007286710428	1200.8182417485	
3941	26.26666666666667	2448.761821133993	931.8524958835587	962.0367610118021	2257.939305608574	112.503695515386	1011.97440147854	2277.042418559464	122.3722594533455	963.8327468839141	2279.393973963826	154.7764545163021	1004.36853529814	2365.859839410808	1000.270979788452	909.4617150553456	2476.223626102281	70.97552114428393	998.5538424975538	2415.738108000189	67.67757007485513	907.2605985194098	2265.621335092404	965.5806740069927	1033.968994292962	2351.086768801148	234.7784055321001	939.1090651730607	2338.193477262686	245.5347331337608	991.959017684431	2374.342639958868	311.4750954277185	930.3858141078263	2362.936237276104	322.3315887541467	981.9384757965609	2487.290422264685	581.9128661050457	894.6804737605797	2431.212827528946	559.0088075096819	935.2844318550706	2438.317691868137	679.1588570704735	880.9473280400827	2383.367540816809	656.1903334534694	917.4319550623901	2455.629903787015	919.1803560415781	1191.77386949715	2167.95938636229	82.60381577797031	1130.853188509053	1982.955773216386	104.4847648467534	1086.521389382245	2008.008446118971	113.8556389160573	1133.874999666366	2010.863150045815	147.4808203793118	1092.618871065113	2395.479581707894	986.7707108956255	1237.002407548751	2188.141629535857	45.95435768822585	1089.849734994327	2134.405973560446	41.6788444369141	1187.834066648418	2269.404037402367	965.4490567295816	1132.624696106579	2093.93540184104	205.5878665297677	1165.48142781737	2066.426969695108	229.6151865426999	1129.738965354798	2128.35751626112	280.5413151697966	1186.758280711142	2097.162647033852	302.153118775244	1149.220474612628	2280.617222695461	576.7162484953438	1225.19328004109	2226.410667434986	592.4154884453295	1179.589285341258	2292.577008635027	684.7671863916195	1243.935383334088	2241.702393898094	698.8093063816864	1200.478032616969	
